<svg width="349" height="104" viewBox="0 0 349 104" fill="none" xmlns="http://www.w3.org/2000/svg">
<g clip-path="url(#clip0_36_2)">
<path opacity="0.2" d="M41 22.1414C34.9182 22.1414 28.973 23.8925 23.9162 27.1735C18.8594 30.4544 14.9181 35.1177 12.5907 40.5736C10.2633 46.0296 9.65437 52.0332 10.8409 57.8252C12.0274 63.6172 14.956 68.9375 19.2565 73.1133C23.5569 77.2892 29.0361 80.1329 35.001 81.285C40.9659 82.4371 47.1487 81.8458 52.7675 79.5859C58.3864 77.326 63.1888 73.4989 66.5677 68.5887C69.9466 63.6784 71.75 57.9056 71.75 52.0001C71.75 44.081 68.5103 36.4864 62.7435 30.8868C56.9768 25.2872 49.1554 22.1414 41 22.1414ZM25.625 56.9765C24.6114 56.9765 23.6205 56.6846 22.7777 56.1378C21.9349 55.591 21.278 54.8138 20.8901 53.9045C20.5022 52.9951 20.4007 51.9945 20.5985 51.0292C20.7962 50.0639 21.2843 49.1771 22.0011 48.4812C22.7178 47.7852 23.631 47.3112 24.6252 47.1192C25.6193 46.9272 26.6498 47.0258 27.5863 47.4024C28.5227 47.7791 29.3232 48.4169 29.8863 49.2353C30.4494 50.0537 30.75 51.0158 30.75 52.0001C30.75 53.3199 30.2101 54.5857 29.2489 55.5189C28.2878 56.4522 26.9842 56.9765 25.625 56.9765ZM41 71.9059C39.9864 71.9059 38.9955 71.614 38.1527 71.0672C37.3099 70.5204 36.653 69.7431 36.2651 68.8338C35.8772 67.9245 35.7757 66.9239 35.9735 65.9586C36.1712 64.9932 36.6593 64.1065 37.3761 63.4105C38.0928 62.7146 39.006 62.2406 40.0002 62.0486C40.9943 61.8566 42.0248 61.9551 42.9613 62.3318C43.8977 62.7084 44.6982 63.3463 45.2613 64.1646C45.8244 64.983 46.125 65.9452 46.125 66.9294C46.125 68.2492 45.5851 69.515 44.6239 70.4483C43.6628 71.3816 42.3592 71.9059 41 71.9059ZM41 42.0472C39.9864 42.0472 38.9955 41.7553 38.1527 41.2085C37.3099 40.6617 36.653 39.8844 36.2651 38.9751C35.8772 38.0658 35.7757 37.0652 35.9735 36.0999C36.1712 35.1345 36.6593 34.2478 37.3761 33.5518C38.0928 32.8559 39.006 32.3819 40.0002 32.1899C40.9943 31.9979 42.0248 32.0964 42.9613 32.4731C43.8977 32.8497 44.6982 33.4876 45.2613 34.3059C45.8244 35.1243 46.125 36.0865 46.125 37.0707C46.125 38.3905 45.5851 39.6563 44.6239 40.5896C43.6628 41.5229 42.3592 42.0472 41 42.0472ZM56.375 56.9765C55.3614 56.9765 54.3705 56.6846 53.5277 56.1378C52.6849 55.591 52.028 54.8138 51.6401 53.9045C51.2522 52.9951 51.1507 51.9945 51.3485 51.0292C51.5462 50.0639 52.0343 49.1771 52.7511 48.4812C53.4678 47.7852 54.381 47.3112 55.3752 47.1192C56.3693 46.9272 57.3998 47.0258 58.3363 47.4024C59.2727 47.7791 60.0732 48.4169 60.6363 49.2353C61.1994 50.0537 61.5 51.0158 61.5 52.0001C61.5 53.3199 60.9601 54.5857 59.9989 55.5189C59.0378 56.4522 57.7342 56.9765 56.375 56.9765Z" fill="url(#paint0_linear_36_2)"/>
<path d="M71.75 79.3706H58.7325C65.5209 75.2177 70.5367 68.8242 72.8571 61.3663C75.1776 53.9085 74.6467 45.8878 71.362 38.7797C68.0774 31.6717 62.2599 25.9544 54.9798 22.6795C47.6997 19.4046 39.4466 18.7924 31.7387 20.9556C24.0308 23.1187 17.3865 27.9117 13.0281 34.4528C8.66964 40.9939 6.89023 48.8433 8.01716 56.5568C9.14409 64.2704 13.1016 71.3295 19.1616 76.4355C25.2216 81.5414 32.9766 84.3509 41 84.3471H71.75C72.4296 84.3471 73.0814 84.0849 73.5619 83.6183C74.0425 83.1517 74.3125 82.5188 74.3125 81.8589C74.3125 81.1989 74.0425 80.566 73.5619 80.0994C73.0814 79.6328 72.4296 79.3706 71.75 79.3706ZM12.8125 52.0002C12.8125 46.5868 14.4656 41.295 17.5629 36.7939C20.6602 32.2929 25.0625 28.7847 30.2131 26.7131C35.3637 24.6415 41.0312 24.0995 46.4991 25.1556C51.9669 26.2117 56.9895 28.8185 60.9316 32.6463C64.8736 36.4741 67.5582 41.3511 68.6459 46.6604C69.7335 51.9698 69.1753 57.4731 67.0418 62.4744C64.9084 67.4757 61.2955 71.7504 56.6601 74.7579C52.0247 77.7654 46.5749 79.3706 41 79.3706C33.5268 79.3624 26.3621 76.4761 21.0778 71.3449C15.7934 66.2137 12.821 59.2567 12.8125 52.0002ZM41 44.5355C42.5204 44.5355 44.0067 44.0977 45.2709 43.2775C46.5351 42.4572 47.5205 41.2914 48.1023 39.9274C48.6841 38.5634 48.8364 37.0625 48.5398 35.6145C48.2431 34.1665 47.511 32.8364 46.4359 31.7925C45.3607 30.7485 43.991 30.0376 42.4997 29.7496C41.0085 29.4615 39.4628 29.6094 38.0581 30.1744C36.6534 30.7393 35.4528 31.6961 34.6081 32.9237C33.7633 34.1512 33.3125 35.5944 33.3125 37.0708C33.3125 39.0506 34.1224 40.9492 35.5641 42.3491C37.0058 43.749 38.9611 44.5355 41 44.5355ZM41 34.5826C41.5068 34.5826 42.0022 34.7285 42.4236 35.0019C42.845 35.2753 43.1735 35.6639 43.3674 36.1186C43.5614 36.5733 43.6121 37.0736 43.5132 37.5562C43.4144 38.0389 43.1703 38.4823 42.8119 38.8303C42.4536 39.1782 41.997 39.4152 41.4999 39.5112C41.0028 39.6072 40.4876 39.558 40.0193 39.3696C39.5511 39.1813 39.1509 38.8624 38.8693 38.4532C38.5878 38.044 38.4375 37.5629 38.4375 37.0708C38.4375 36.4109 38.7075 35.778 39.188 35.3114C39.6686 34.8447 40.3204 34.5826 41 34.5826ZM48.6875 66.9295C48.6875 65.4531 48.2366 64.0099 47.3919 62.7824C46.5472 61.5548 45.3466 60.598 43.9419 60.033C42.5371 59.4681 40.9914 59.3202 39.5002 59.6083C38.009 59.8963 36.6392 60.6072 35.5641 61.6512C34.489 62.6951 33.7568 64.0252 33.4602 65.4732C33.1636 66.9212 33.3158 68.4221 33.8977 69.7861C34.4795 71.1501 35.4648 72.3159 36.729 73.1362C37.9932 73.9564 39.4795 74.3942 41 74.3942C43.0388 74.3942 44.9942 73.6077 46.4359 72.2078C47.8775 70.8079 48.6875 68.9093 48.6875 66.9295ZM38.4375 66.9295C38.4375 66.4374 38.5878 65.9563 38.8693 65.5471C39.1509 65.1379 39.5511 64.819 40.0193 64.6307C40.4876 64.4424 41.0028 64.3931 41.4999 64.4891C41.997 64.5851 42.4536 64.8221 42.8119 65.1701C43.1703 65.518 43.4144 65.9614 43.5132 66.4441C43.6121 66.9267 43.5614 67.427 43.3674 67.8817C43.1735 68.3364 42.845 68.725 42.4236 68.9984C42.0022 69.2718 41.5068 69.4177 41 69.4177C40.3204 69.4177 39.6686 69.1556 39.188 68.6889C38.7075 68.2223 38.4375 67.5894 38.4375 66.9295ZM56.375 59.4648C57.8954 59.4648 59.3817 59.027 60.6459 58.2068C61.9101 57.3866 62.8955 56.2208 63.4773 54.8568C64.0591 53.4928 64.2114 51.9919 63.9148 50.5439C63.6181 49.0959 62.886 47.7658 61.8109 46.7218C60.7357 45.6779 59.366 44.9669 57.8747 44.6789C56.3835 44.3909 54.8378 44.5387 53.4331 45.1037C52.0284 45.6687 50.8278 46.6254 49.9831 47.853C49.1383 49.0806 48.6875 50.5238 48.6875 52.0002C48.6875 53.9799 49.4974 55.8786 50.9391 57.2785C52.3808 58.6784 54.3361 59.4648 56.375 59.4648ZM56.375 49.5119C56.8818 49.5119 57.3772 49.6579 57.7986 49.9313C58.22 50.2047 58.5485 50.5933 58.7424 51.048C58.9364 51.5026 58.9871 52.0029 58.8882 52.4856C58.7894 52.9683 58.5453 53.4116 58.1869 53.7596C57.8286 54.1076 57.372 54.3446 56.8749 54.4406C56.3778 54.5366 55.8626 54.4873 55.3944 54.299C54.9261 54.1107 54.5259 53.7917 54.2443 53.3825C53.9628 52.9734 53.8125 52.4923 53.8125 52.0002C53.8125 51.3402 54.0825 50.7074 54.563 50.2407C55.0436 49.7741 55.6954 49.5119 56.375 49.5119ZM25.625 44.5355C24.1045 44.5355 22.6182 44.9733 21.354 45.7935C20.0898 46.6137 19.1045 47.7796 18.5227 49.1436C17.9408 50.5075 17.7886 52.0084 18.0852 53.4564C18.3818 54.9045 19.114 56.2345 20.1891 57.2785C21.2642 58.3224 22.634 59.0334 24.1252 59.3214C25.6164 59.6094 27.1621 59.4616 28.5669 58.8966C29.9716 58.3316 31.1722 57.3749 32.0169 56.1473C32.8616 54.9197 33.3125 53.4765 33.3125 52.0002C33.3125 50.0204 32.5025 48.1217 31.0609 46.7218C29.6192 45.3219 27.6638 44.5355 25.625 44.5355ZM25.625 54.4884C25.1182 54.4884 24.6227 54.3425 24.2013 54.069C23.7799 53.7956 23.4515 53.407 23.2575 52.9524C23.0636 52.4977 23.0128 51.9974 23.1117 51.5147C23.2106 51.0321 23.4546 50.5887 23.813 50.2407C24.1714 49.8927 24.628 49.6558 25.1251 49.5597C25.6221 49.4637 26.1374 49.513 26.6056 49.7013C27.0738 49.8897 27.474 50.2086 27.7556 50.6178C28.0372 51.027 28.1875 51.508 28.1875 52.0002C28.1875 52.6601 27.9175 53.293 27.4369 53.7596C26.9564 54.2262 26.3046 54.4884 25.625 54.4884Z" fill="url(#paint1_linear_36_2)"/>
<path d="M93.92 79.22C91.7867 79.22 90.1333 78.6333 88.96 77.46C87.84 76.2867 87.28 74.6333 87.28 72.5V28.1C87.28 25.9133 87.8933 24.26 89.12 23.14C90.3467 21.9667 92.08 21.38 94.32 21.38C96.1867 21.38 97.6533 21.7533 98.72 22.5C99.84 23.1933 100.853 24.3667 101.76 26.02L118.96 56.9H116.16L133.28 26.02C134.24 24.3667 135.253 23.1933 136.32 22.5C137.44 21.7533 138.933 21.38 140.8 21.38C142.933 21.38 144.56 21.9667 145.68 23.14C146.853 24.26 147.44 25.9133 147.44 28.1V72.5C147.44 74.6333 146.88 76.2867 145.76 77.46C144.64 78.6333 142.987 79.22 140.8 79.22C138.667 79.22 137.013 78.6333 135.84 77.46C134.72 76.2867 134.16 74.6333 134.16 72.5V44.98H135.84L122.96 67.38C122.213 68.5533 121.413 69.4333 120.56 70.02C119.76 70.6067 118.667 70.9 117.28 70.9C115.947 70.9 114.853 70.6067 114 70.02C113.147 69.4333 112.373 68.5533 111.68 67.38L98.72 44.9H100.56V72.5C100.56 74.6333 100 76.2867 98.88 77.46C97.76 78.6333 96.1067 79.22 93.92 79.22ZM176.783 79.38C172.41 79.38 168.596 78.5533 165.343 76.9C162.09 75.2467 159.556 72.8733 157.743 69.78C155.93 66.6867 155.023 63.0333 155.023 58.82C155.023 55.62 155.53 52.7667 156.543 50.26C157.556 47.7 159.023 45.54 160.943 43.78C162.863 41.9667 165.156 40.6067 167.823 39.7C170.49 38.74 173.476 38.26 176.783 38.26C181.156 38.26 184.97 39.0867 188.223 40.74C191.476 42.3933 193.983 44.7667 195.743 47.86C197.556 50.9 198.463 54.5533 198.463 58.82C198.463 61.9667 197.956 64.82 196.943 67.38C195.93 69.94 194.463 72.1267 192.543 73.94C190.676 75.7 188.383 77.06 185.663 78.02C182.996 78.9267 180.036 79.38 176.783 79.38ZM176.783 68.9C178.223 68.9 179.503 68.5533 180.623 67.86C181.743 67.1133 182.596 66.02 183.183 64.58C183.823 63.0867 184.143 61.1667 184.143 58.82C184.143 55.2467 183.45 52.6867 182.063 51.14C180.676 49.54 178.916 48.74 176.783 48.74C175.343 48.74 174.063 49.0867 172.943 49.78C171.823 50.4733 170.943 51.5667 170.303 53.06C169.663 54.5 169.343 56.42 169.343 58.82C169.343 62.34 170.036 64.9 171.423 66.5C172.81 68.1 174.596 68.9 176.783 68.9ZM221.413 79.22C219.546 79.22 217.946 78.7667 216.613 77.86C215.333 76.9 214.266 75.4867 213.413 73.62L201.973 47.46C201.333 45.86 201.119 44.3667 201.333 42.98C201.546 41.5933 202.213 40.5 203.333 39.7C204.506 38.8467 206.106 38.42 208.133 38.42C209.839 38.42 211.199 38.82 212.213 39.62C213.279 40.3667 214.239 41.86 215.093 44.1L223.173 64.9H220.453L228.933 44.02C229.786 41.8333 230.746 40.3667 231.813 39.62C232.879 38.82 234.346 38.42 236.213 38.42C237.813 38.42 239.093 38.8467 240.053 39.7C241.066 40.5 241.679 41.5933 241.893 42.98C242.106 44.3667 241.839 45.86 241.093 47.46L229.413 73.7C228.613 75.5667 227.546 76.9533 226.213 77.86C224.933 78.7667 223.333 79.22 221.413 79.22ZM254.372 79.22C252.132 79.22 250.399 78.5533 249.172 77.22C247.945 75.8867 247.332 73.9667 247.332 71.46V46.18C247.332 43.6733 247.945 41.7533 249.172 40.42C250.399 39.0867 252.132 38.42 254.372 38.42C256.665 38.42 258.425 39.0867 259.652 40.42C260.932 41.7533 261.572 43.6733 261.572 46.18V71.46C261.572 73.9667 260.959 75.8867 259.732 77.22C258.505 78.5533 256.719 79.22 254.372 79.22ZM254.372 32.74C251.865 32.74 249.919 32.1533 248.532 30.98C247.199 29.8067 246.532 28.1 246.532 25.86C246.532 23.6733 247.199 21.9933 248.532 20.82C249.919 19.6467 251.865 19.06 254.372 19.06C256.985 19.06 258.959 19.6467 260.292 20.82C261.625 21.9933 262.292 23.6733 262.292 25.86C262.292 28.1 261.625 29.8067 260.292 30.98C258.959 32.1533 256.985 32.74 254.372 32.74ZM291.272 79.38C286.472 79.38 282.312 78.5533 278.792 76.9C275.325 75.1933 272.659 72.7933 270.792 69.7C268.925 66.6067 267.992 62.9533 267.992 58.74C267.992 54.6867 268.872 51.14 270.632 48.1C272.445 45.0067 274.899 42.6067 277.992 40.9C281.139 39.14 284.712 38.26 288.712 38.26C291.645 38.26 294.312 38.74 296.712 39.7C299.112 40.6067 301.165 41.9667 302.872 43.78C304.579 45.54 305.859 47.6733 306.712 50.18C307.619 52.6867 308.072 55.4867 308.072 58.58C308.072 59.6467 307.779 60.4467 307.192 60.98C306.605 61.46 305.672 61.7 304.392 61.7H279.912V54.98H297.672L296.392 56.02C296.392 54.0467 296.125 52.4467 295.592 51.22C295.059 49.9933 294.259 49.06 293.192 48.42C292.179 47.78 290.899 47.46 289.352 47.46C287.699 47.46 286.259 47.86 285.032 48.66C283.859 49.4067 282.952 50.5267 282.312 52.02C281.672 53.5133 281.352 55.38 281.352 57.62V58.34C281.352 62.1267 282.179 64.8467 283.832 66.5C285.539 68.1 288.152 68.9 291.672 68.9C292.845 68.9 294.179 68.7667 295.672 68.5C297.219 68.18 298.685 67.7533 300.072 67.22C301.459 66.6867 302.659 66.6067 303.672 66.98C304.685 67.3 305.459 67.8867 305.992 68.74C306.579 69.54 306.899 70.4733 306.952 71.54C307.005 72.5533 306.765 73.5667 306.232 74.58C305.699 75.54 304.819 76.2867 303.592 76.82C301.725 77.6733 299.725 78.3133 297.592 78.74C295.512 79.1667 293.405 79.38 291.272 79.38ZM317.589 78.5C316.149 78.5 314.976 78.1533 314.069 77.46C313.163 76.7133 312.549 75.78 312.229 74.66C311.909 73.54 311.909 72.34 312.229 71.06C312.603 69.7267 313.296 68.5 314.309 67.38L332.869 46.42V49.62H317.029C315.323 49.62 314.016 49.1667 313.109 48.26C312.203 47.3533 311.749 46.0467 311.749 44.34C311.749 42.6333 312.203 41.3533 313.109 40.5C314.016 39.5933 315.323 39.14 317.029 39.14H339.669C341.269 39.14 342.576 39.5133 343.589 40.26C344.603 40.9533 345.269 41.86 345.589 42.98C345.963 44.1 345.989 45.3 345.669 46.58C345.349 47.86 344.683 49.06 343.669 50.18L324.629 71.7V68.02H341.669C345.243 68.02 347.029 69.7533 347.029 73.22C347.029 74.9267 346.576 76.2333 345.669 77.14C344.763 78.0467 343.429 78.5 341.669 78.5H317.589Z" fill="url(#paint2_linear_36_2)"/>
</g>
<defs>
<linearGradient id="paint0_linear_36_2" x1="41" y1="22.1414" x2="41" y2="81.8588" gradientUnits="userSpaceOnUse">
<stop stop-color="#00DBDF"/>
<stop offset="1" stop-color="#0968E5"/>
</linearGradient>
<linearGradient id="paint1_linear_36_2" x1="40.9997" y1="19.6843" x2="40.9997" y2="84.3471" gradientUnits="userSpaceOnUse">
<stop stop-color="#00DBDF"/>
<stop offset="1" stop-color="#0968E5"/>
</linearGradient>
<linearGradient id="paint2_linear_36_2" x1="371.847" y1="22.025" x2="105.684" y2="-1.84238" gradientUnits="userSpaceOnUse">
<stop stop-color="#00DBDF"/>
<stop offset="1" stop-color="#0968E5"/>
</linearGradient>
<clipPath id="clip0_36_2">
<rect width="349" height="104" fill="white"/>
</clipPath>
</defs>
</svg>
